<?xml version="1.0" encoding="UTF-8"?>
<svg width="1800px" height="261px" viewBox="0 0 1800 261" version="1.1" xmlns="http://www.w3.org/2000/svg" xmlns:xlink="http://www.w3.org/1999/xlink">
    <title>silueta mar</title>
    <g id="Page-1" stroke="none" stroke-width="1" fill="none" fill-rule="evenodd">
        <g id="Encanto-de-la-costa-vasca" transform="translate(0.000000, -7376.000000)" fill="#77AFC6">
            <g id="silueta-mar" transform="translate(0.000000, 7376.000000)">
                <path d="M1800,261 L1800,49.9985513 C1786.21956,56.8875021 1776.57156,59.8123795 1759.01472,59.0505426 C1716.8238,57.2196126 1700.02152,28.6991762 1663.70292,18.4159989 C1630.40724,8.98867231 1602.08892,39.9196111 1577.58048,53.1240638 C1503.82908,92.8602524 1456.407,26.3477477 1389.08952,18.4621053 C1315.647,9.85929161 1276.87248,88.2013405 1204.08012,66.6019133 C1176.1722,58.3211243 1155.82716,35.1285034 1126.95372,30.8654586 C1098.80352,26.7090349 1080.76608,39.5493187 1058.31684,50.3223771 C998.43696,79.058217 963.87768,43.8761202 909.72288,28.599399 C854.0766,12.9012362 804.56652,57.4541071 747.26424,50.6825836 C681.29352,42.8873531 638.27496,-6.37665966 568.72548,21.9773613 C509.55516,46.1000356 467.06616,68.3539581 402.0192,40.5125111 C374.46012,28.7168263 347.81796,6.28135968 317.36988,1.21649499 C287.78112,-3.70500747 256.6584,7.28453499 230.01876,16.6808838 C172.81224,36.8589358 132.7644,38.8483567 75.96936,16.7223075 C52.5348,7.59251162 36.08424,2.52296425 10.30752,9.39282409 C6.91668,10.2969426 3.4776,11.5410961 0,12.9941695 L0,261 L1800,261 Z" id="Fill-1"></path>
            </g>
        </g>
    </g>
</svg>