<svg width="156" height="158" viewBox="0 0 156 158" fill="none" xmlns="http://www.w3.org/2000/svg">
<g clip-path="url(#clip0_686_8536)">
<path d="M72.6068 105.79C70.056 112.063 69.0667 118.864 69.7236 125.61C70.2472 130.443 72.6371 137.128 73.3119 139.765C74.1473 143.041 72.5563 143.501 70.4412 141.883C58.6035 133.161 59.7533 120.345 65.7513 108.119L72.6068 105.79Z" fill="#002C9B"/>
<path d="M66.004 108.073L72.6154 105.773C70.0646 112.046 69.0753 118.847 69.7322 125.593C70.2558 130.426 72.6457 137.111 73.3205 139.747C73.7843 141.601 73.4806 142.521 72.7421 142.717C92.6655 141.798 112.761 129.952 124.337 109.902C141.504 80.1672 133.758 43.4304 106.971 27.9646C80.1832 12.4988 44.5831 24.0398 27.3421 53.9021C16.5184 72.6492 21.3858 95.7734 38.2594 105.515C42.4553 107.848 47.0909 109.281 51.8688 109.721C56.6468 110.162 61.4615 109.6 66.004 108.073Z" fill="#92BFFF"/>
<path d="M58.9922 107.026C57.8685 107.988 56.7083 108.904 55.5117 109.774C59.0606 109.7 62.5798 109.126 65.9652 108.069L71.6019 106.113C74.7077 102.242 78.0054 98.1047 81.2076 93.9688L76.8637 101.165C75.3513 103.784 72.8416 108.131 70.6507 111.926C69.5871 116.401 69.2732 121.024 69.7218 125.606C70.1163 128.433 70.7405 131.224 71.5882 133.952C72.2043 132.589 72.7696 131.217 73.2497 129.795C74.7294 124.608 77.2947 117.442 79.1604 112.308C81.0541 106.699 83.0588 100.701 84.9003 94.8547C84.2811 97.8955 83.6983 100.938 83.1075 103.996C82.2478 108.502 80.6297 117.668 79.9693 122.158C78.9971 128.204 77.0453 134.176 77.4 140.385L77.5057 142.334C81.4472 141.804 85.3243 140.88 89.0784 139.575C89.3978 137.118 89.5312 134.639 89.4775 132.16C89.1041 126.771 89.0526 119.152 89.0432 113.69C88.9211 108.523 88.7736 103.038 88.5627 97.63L89.3959 102.944C90.1277 107.482 91.7722 116.606 92.6749 121.111C93.6892 126.341 93.9873 131.762 95.6566 136.841C99.3481 135.05 102.859 132.911 106.143 130.454C105.817 129.378 105.483 128.317 105.025 127.241C102.833 122.313 100.176 115.171 98.2973 110.028C96.4986 105.402 94.5746 100.535 92.6036 95.7152L95.2171 100.471C97.4629 104.487 102.131 112.506 104.522 116.435C106.589 119.875 108.311 123.55 110.453 126.958C113.395 124.351 116.103 121.493 118.547 118.415C118.405 118.333 118.337 118.124 118.219 118C114.461 114.112 109.523 108.297 105.995 104.108C102.694 100.314 99.1083 96.3556 95.6648 92.4795C97.5561 94.1567 99.4353 95.7892 101.377 97.4769C104.864 100.491 111.997 106.44 115.58 109.32C117.605 110.962 119.527 112.751 121.503 114.477C122.483 113.042 123.451 111.562 124.334 110.032C125.217 108.503 126.129 106.727 126.917 105.067C122.363 102.721 116.836 99.5674 112.745 97.2057C106.507 93.7742 99.7823 90.1369 93.2311 86.7889C97.0668 88.3237 100.902 89.8268 104.736 91.2981C109.039 92.9324 117.773 96.1064 122.137 97.5686C124.44 98.3693 126.711 99.3222 128.993 100.224C130.308 96.8342 131.348 93.3436 132.103 89.7861C126.883 89.1511 120.232 88.0106 115.319 87.1379C110.809 86.4217 106.049 85.7123 101.286 85.0393C102.906 85.0873 104.534 85.121 106.148 85.1466C110.74 85.23 120.029 85.2127 124.623 85.1277C127.357 85.0826 130.109 85.2366 132.851 85.3093C133.38 81.5541 133.568 77.7582 133.415 73.9674L132.793 74.0612C127.54 75.352 120.037 76.7029 114.652 77.6338C109.02 78.7621 103.038 79.9716 97.1695 81.2467C103.011 79.2956 108.955 77.2335 114.499 75.2421L123.134 71.9961C126.363 70.7646 129.716 69.8118 132.98 68.6191C132.461 64.6514 131.545 60.7446 130.244 56.9578C129.124 57.5196 128.025 58.1119 126.919 58.8138C122.407 61.8726 115.87 65.6503 111.121 68.3647L101.753 74.0947C102.267 73.4665 102.769 72.7936 103.241 72.1408C106.91 69.0669 113.394 63.6734 116.637 60.8448C120.379 57.6435 124.508 54.8545 127.946 51.3267C126.251 47.653 124.145 44.182 121.667 40.9804C119.517 42.8481 117.534 44.8996 115.741 47.1118C114.767 48.4375 113.543 50.0338 112.296 51.636C113.461 48.1743 114.724 44.6745 115.782 41.7926L117.606 36.3701C116.066 34.8146 114.424 33.3623 112.692 32.0228C110.24 36.2707 106.324 43.053 104.264 46.6212C102.204 50.1894 99.6083 53.996 97.6386 57.8996C97.3922 52.8487 97.3504 46.6888 97.3222 42.0471C97.178 36.1301 97.0126 29.8234 96.7372 23.6419C95.5979 23.2862 94.4424 22.9589 93.2764 22.6822C92.6646 25.9286 92.0299 29.1492 91.3722 32.3439C90.5043 36.8648 88.9086 46.025 88.2258 50.5205C87.7197 53.7588 86.9292 56.9649 86.4068 60.2315C86.157 59.4832 85.9155 58.7207 85.621 57.9843C83.4146 53.0479 80.772 45.915 78.8936 40.7714C76.5381 34.7484 73.9868 28.3101 71.4063 22.1193C70.3528 22.304 69.2911 22.5028 68.3064 22.765C68.8337 26.4111 69.4058 30.0452 69.9921 33.6876C70.7239 38.2258 72.3684 47.35 73.2711 51.8547C73.533 53.2708 73.7501 54.6988 74.0081 56.056L73.439 55.3688C69.6805 51.4808 64.7429 45.666 61.2373 41.4709C57.9216 37.6687 54.3503 33.7188 50.9068 29.8428C49.6971 30.5604 48.5137 31.3308 47.3424 32.146C48.3975 34.0578 49.4526 35.9697 50.5159 37.8674C52.7535 41.8968 57.4302 49.9019 59.7983 53.8367C61.58 56.7533 63.0927 59.8733 64.8052 62.8443C60.6754 60.6488 56.0796 58.0143 52.5288 55.9642C46.297 52.555 39.5659 48.8954 33.0573 45.5719C32.5104 46.2568 31.9838 46.9722 31.4571 47.6876C34.6707 50.5624 37.9053 53.4117 41.161 56.2353C44.6479 59.249 51.7804 65.1983 55.3632 68.0787C57.3117 69.6567 59.1501 71.36 61.0272 73.029C55.7361 72.353 49.1048 71.243 44.1559 70.3681C37.191 69.311 29.5862 68.1487 22.3568 67.222C22.1792 68.12 22.079 68.9495 21.9195 69.9147C25.8072 71.4796 29.7053 72.9939 33.5892 74.4999C37.8914 76.1343 46.6344 79.2941 50.9899 80.7704C54.4946 81.982 57.9046 83.5544 61.4175 84.7518C60.9273 84.8464 60.4475 84.8903 59.9715 84.9931C54.719 86.2839 47.2303 87.643 41.8448 88.5738C36.4593 89.5046 31.0119 90.7396 25.5159 91.9275C26.2198 93.3304 27.0212 94.6825 27.914 95.9741C29.7676 96.0437 31.5218 96.0558 33.3268 96.0785C37.9326 96.1701 47.2079 96.1446 51.8021 96.0595C57.931 95.9732 64.1706 96.8759 70.2223 95.4801C71.4204 95.209 72.5879 94.958 73.7821 94.628L73.0811 95.1862C69.5353 98.0476 62.4368 104.012 58.9922 107.026Z" fill="#4994FF"/>
<path d="M70.7397 78.9777C74.0096 73.3139 80.7201 71.2035 85.7907 74.131C90.634 76.9273 92.087 83.5621 89.1657 89.5405C85.9088 96.2313 78.3955 102.881 66.8195 109.319C66.6283 109.424 66.403 109.449 66.1932 109.388C65.9833 109.327 65.8061 109.185 65.7005 108.994C65.5949 108.803 65.5695 108.578 65.63 108.368C65.6906 108.159 65.832 107.982 66.0231 107.877C77.2389 101.572 84.5968 95.1906 87.6881 88.8195C90.233 83.6244 89.0638 77.9086 84.9732 75.5469C80.8826 73.1852 74.9395 74.9835 72.16 79.7977C72.0486 79.9823 71.8698 80.1164 71.6612 80.1719C71.4526 80.2275 71.2304 80.2001 71.0411 80.0957C70.8527 79.9869 70.7152 79.8081 70.6586 79.5984C70.6021 79.3888 70.6312 79.1655 70.7397 78.9777Z" fill="#002C9B"/>
</g>
<defs>
<clipPath id="clip0_686_8536">
<rect width="117" height="112" fill="white" transform="translate(155.495 56) rotate(120)"/>
</clipPath>
</defs>
</svg>
