<svg width="358" height="459" viewBox="0 0 358 459" fill="none" xmlns="http://www.w3.org/2000/svg">
<g clip-path="url(#clip0_686_8458)">
<path d="M246.259 89.0352C246.259 89.0352 218.323 193.996 207.797 219.28" stroke="#002C9B" stroke-width="12" stroke-miterlimit="10" stroke-linecap="round"/>
<path d="M295.616 99.1226C295.616 99.1226 267.39 155.246 259.977 165.598C252.564 175.949 204.539 242.96 188.268 266.621" stroke="#002C9B" stroke-width="12" stroke-miterlimit="10" stroke-linecap="round"/>
<path d="M122.798 107.848C122.798 107.848 103.375 226.648 103.706 234.029" stroke="#002C9B" stroke-width="12" stroke-miterlimit="10" stroke-linecap="round"/>
<path d="M308.324 130.487C308.324 130.487 239.144 297.199 206.608 325.964C174.071 354.729 121.566 422.539 121.566 422.539" stroke="#002C9B" stroke-width="12" stroke-miterlimit="10" stroke-linecap="round"/>
<path d="M205.335 24.8867C205.335 24.8867 175.345 103.273 167.516 135.588C164.142 149.508 153.895 233.407 150.759 241.052C145.128 254.756 141.535 258.631 138.543 268.54C138.543 268.54 144.271 303.05 134.532 327.918C124.793 352.786 91.1881 414.289 91.1881 414.289" stroke="#92BFFF" stroke-width="12" stroke-miterlimit="10" stroke-linecap="round"/>
<path d="M82.6469 400.806C82.6469 400.806 156.112 246.143 168.031 218.119C179.95 190.094 201.769 110.199 201.769 110.199" stroke="#002C9B" stroke-width="28" stroke-miterlimit="10" stroke-linecap="round"/>
<path d="M74.4587 401.601C74.4587 401.601 90.2941 288.78 105.579 242.619C120.864 196.458 159.244 68.168 159.244 68.168" stroke="#92BFFF" stroke-width="20" stroke-miterlimit="10" stroke-linecap="round"/>
<path d="M112.473 418.494L301.067 202.087" stroke="#92BFFF" stroke-width="20" stroke-miterlimit="10" stroke-linecap="round"/>
<path d="M88.102 407.664L100.722 329.777C102.098 322.42 103.924 315.155 106.189 308.022L118.125 270.331C121.985 258.122 127.111 246.349 133.419 235.205C143.653 217.102 159.087 190.256 163.929 184.113" stroke="#92BFFF" stroke-width="20" stroke-miterlimit="10" stroke-linecap="round"/>
<path d="M171.173 182.748C171.809 181.886 170.462 179.813 168.164 178.118C165.866 176.423 163.488 175.748 162.852 176.611C162.216 177.473 163.563 179.546 165.861 181.241C168.159 182.936 170.537 183.611 171.173 182.748Z" fill="#002C9B"/>
<path d="M309.286 199.83C309.922 198.968 308.575 196.895 306.277 195.2C303.979 193.505 301.601 192.83 300.965 193.693C300.329 194.555 301.676 196.628 303.974 198.323C306.272 200.018 308.65 200.693 309.286 199.83Z" fill="#002C9B"/>
<path d="M210.928 100.943C210.797 101.705 207.142 102.641 203.085 101.944C199.029 101.246 196.127 99.1579 196.258 98.3954C196.389 97.6328 200.054 96.6246 204.111 97.3221C208.167 98.0196 211.026 100.155 210.928 100.943Z" fill="#92BFFF"/>
<path d="M338.774 130.15L202.22 298.752C200.439 300.952 198.766 303.225 197.198 305.57L117.226 420.606" stroke="#92BFFF" stroke-width="20" stroke-miterlimit="10" stroke-linecap="round"/>
<path d="M346.712 130.707C348.206 129.005 347.272 125.744 344.628 123.424C341.983 121.104 338.629 120.603 337.136 122.305C335.642 124.007 336.575 127.268 339.22 129.588C341.864 131.908 345.219 132.409 346.712 130.707Z" fill="#002C9B"/>
<path d="M103.299 414.418C103.299 414.418 149.317 331.731 163.851 305.898C178.386 280.064 201.791 231.932 212.714 211.245C223.637 190.558 245.45 154.455 245.45 154.455" stroke="#92BFFF" stroke-width="20" stroke-miterlimit="10" stroke-linecap="round"/>
<path d="M252.821 154.193C253.975 152.277 252.466 149.253 249.452 147.439C246.438 145.624 243.059 145.707 241.906 147.624C240.752 149.54 242.261 152.564 245.275 154.379C248.289 156.193 251.668 156.11 252.821 154.193Z" fill="#002C9B"/>
</g>
<defs>
<clipPath id="clip0_686_8458">
<rect width="222" height="403" fill="white" transform="translate(164.163) rotate(23.9621)"/>
</clipPath>
</defs>
</svg>
