<svg width="293" height="370" viewBox="0 0 293 370" fill="none" xmlns="http://www.w3.org/2000/svg">
<g clip-path="url(#clip0_686_8475)">
<path d="M138.932 66.3377C143.888 63.9535 148.026 60.1549 150.824 55.4223C153.622 50.6897 154.954 45.2356 154.65 39.7499C154.347 34.2641 152.422 28.993 149.119 24.6031C145.817 20.2132 141.285 16.9017 136.096 15.0874C130.908 13.273 125.296 13.0373 119.971 14.41C114.645 15.7827 109.845 18.7022 106.178 22.7993C102.51 26.8965 100.14 31.9872 99.3663 37.4277C98.5929 42.8682 99.4511 48.4142 101.832 53.3644C105.026 60.0023 110.728 65.0983 117.686 67.5313C124.643 69.9643 132.286 69.5349 138.932 66.3377Z" fill="#33CFC8"/>
<path d="M91.2356 214.485C94.8523 212.745 97.8724 209.973 99.9141 206.52C101.956 203.066 102.927 199.086 102.706 195.083C102.484 191.08 101.08 187.233 98.6699 184.03C96.26 180.827 92.9528 178.41 89.1667 177.086C85.3806 175.762 81.2855 175.59 77.3993 176.592C73.5131 177.593 70.0104 179.724 67.3341 182.714C64.6577 185.703 62.928 189.418 62.3636 193.388C61.7992 197.359 62.4255 201.406 64.1633 205.018C65.3159 207.417 66.9307 209.566 68.9155 211.341C70.9002 213.115 73.216 214.481 75.7303 215.361C78.2446 216.24 80.9082 216.615 83.5688 216.465C86.2293 216.315 88.8346 215.642 91.2356 214.485Z" fill="#33CFC8"/>
<path d="M119.77 226.852C123.386 225.112 126.407 222.34 128.448 218.887C130.49 215.433 131.461 211.453 131.24 207.45C131.019 203.447 129.614 199.601 127.204 196.397C124.794 193.194 121.487 190.777 117.701 189.453C113.915 188.129 109.82 187.957 105.933 188.959C102.047 189.961 98.5446 192.091 95.8682 195.081C93.1919 198.071 91.4622 201.785 90.8978 205.756C90.3334 209.726 90.9597 213.773 92.6974 217.385C93.85 219.785 95.4649 221.933 97.4497 223.708C99.4344 225.483 101.75 226.849 104.265 227.728C106.779 228.607 109.442 228.982 112.103 228.832C114.763 228.682 117.369 228.009 119.77 226.852Z" fill="#33CFC8"/>
<path d="M140.32 246.051C143.936 244.312 146.956 241.54 148.998 238.086C151.04 234.633 152.011 230.653 151.79 226.649C151.568 222.646 150.164 218.8 147.754 215.596C145.344 212.393 142.037 209.976 138.251 208.652C134.465 207.328 130.369 207.156 126.483 208.158C122.597 209.16 119.094 211.29 116.418 214.28C113.742 217.27 112.012 220.985 111.448 224.955C110.883 228.925 111.509 232.972 113.247 236.584C114.4 238.984 116.015 241.132 117.999 242.907C119.984 244.682 122.3 246.048 124.814 246.927C127.329 247.806 129.992 248.182 132.653 248.031C135.313 247.881 137.919 247.208 140.32 246.051Z" fill="#33CFC8"/>
<path d="M158.22 268.274C161.837 266.534 164.857 263.762 166.898 260.309C168.94 256.855 169.912 252.875 169.69 248.872C169.469 244.869 168.064 241.022 165.654 237.819C163.244 234.616 159.937 232.199 156.151 230.875C152.365 229.551 148.27 229.379 144.384 230.381C140.497 231.383 136.995 233.513 134.318 236.503C131.642 239.493 129.912 243.207 129.348 247.177C128.784 251.148 129.41 255.195 131.148 258.807C132.3 261.207 133.915 263.355 135.9 265.13C137.885 266.904 140.2 268.27 142.715 269.15C145.229 270.029 147.893 270.404 150.553 270.254C153.214 270.104 155.819 269.431 158.22 268.274Z" fill="#33CFC8"/>
<path d="M172.24 297.415C175.856 295.675 178.876 292.903 180.918 289.449C182.96 285.996 183.931 282.016 183.71 278.013C183.488 274.01 182.084 270.163 179.674 266.96C177.264 263.756 173.957 261.34 170.171 260.016C166.384 258.692 162.289 258.52 158.403 259.521C154.517 260.523 151.014 262.654 148.338 265.643C145.662 268.633 143.932 272.348 143.368 276.318C142.803 280.288 143.429 284.335 145.167 287.948C146.32 290.347 147.935 292.496 149.919 294.27C151.904 296.045 154.22 297.411 156.734 298.29C159.249 299.17 161.912 299.545 164.573 299.395C167.233 299.244 169.838 298.571 172.24 297.415Z" fill="#33CFC8"/>
<path d="M194.952 317.309C198.569 315.569 201.589 312.797 203.631 309.344C205.673 305.89 206.644 301.91 206.423 297.907C206.201 293.904 204.797 290.058 202.387 286.854C199.977 283.651 196.67 281.234 192.883 279.91C189.097 278.586 185.002 278.414 181.116 279.416C177.23 280.418 173.727 282.548 171.051 285.538C168.375 288.528 166.645 292.243 166.08 296.213C165.516 300.183 166.142 304.23 167.88 307.842C169.033 310.242 170.647 312.39 172.632 314.165C174.617 315.94 176.933 317.306 179.447 318.185C181.961 319.064 184.625 319.439 187.286 319.289C189.946 319.139 192.551 318.466 194.952 317.309Z" fill="#33CFC8"/>
<path d="M162.578 93.0096C167.534 90.6253 171.673 86.8267 174.471 82.0941C177.269 77.3615 178.6 71.9075 178.297 66.4217C177.993 60.936 176.068 55.6649 172.766 51.275C169.463 46.8851 164.931 43.5736 159.743 41.7592C154.555 39.9449 148.943 39.7091 143.617 41.0819C138.292 42.4546 133.492 45.3741 129.824 49.4712C126.157 53.5683 123.786 58.659 123.013 64.0996C122.239 69.5401 123.098 75.0861 125.479 80.0363C128.672 86.6742 134.375 91.7702 141.332 94.2032C148.29 96.6361 155.932 96.2068 162.578 93.0096Z" fill="#33CFC8"/>
<path d="M180.455 130.17C185.411 127.786 189.55 123.987 192.348 119.254C195.146 114.522 196.477 109.068 196.174 103.582C195.87 98.0961 193.945 92.825 190.643 88.4351C187.34 84.0452 182.808 80.7337 177.62 78.9194C172.431 77.105 166.82 76.8693 161.494 78.242C156.169 79.6147 151.369 82.5343 147.701 86.6314C144.034 90.7285 141.663 95.8192 140.89 101.26C140.116 106.7 140.975 112.246 143.356 117.196C146.549 123.834 152.252 128.93 159.209 131.363C166.167 133.796 173.809 133.367 180.455 130.17Z" fill="#33CFC8"/>
<path d="M193.429 168.912C198.385 166.528 202.524 162.729 205.321 157.996C208.119 153.264 209.451 147.81 209.147 142.324C208.844 136.838 206.919 131.567 203.616 127.177C200.314 122.787 195.782 119.476 190.593 117.662C185.405 115.847 179.793 115.611 174.468 116.984C169.142 118.357 164.342 121.276 160.675 125.374C157.007 129.471 154.637 134.561 153.863 140.002C153.09 145.442 153.948 150.988 156.33 155.939C159.523 162.577 165.226 167.673 172.183 170.106C179.14 172.538 186.783 172.109 193.429 168.912Z" fill="#33CFC8"/>
<path d="M241.974 280.529C246.93 278.145 251.068 274.346 253.866 269.614C256.664 264.881 257.996 259.427 257.692 253.941C257.389 248.455 255.464 243.184 252.161 238.794C248.859 234.405 244.327 231.093 239.138 229.279C233.95 227.464 228.338 227.229 223.013 228.601C217.687 229.974 212.887 232.894 209.22 236.991C205.552 241.088 203.182 246.179 202.408 251.619C201.635 257.06 202.493 262.606 204.874 267.556C208.068 274.194 213.77 279.29 220.728 281.723C227.685 284.156 235.328 283.726 241.974 280.529Z" fill="#33CFC8"/>
<path d="M196.297 209.181C201.253 206.797 205.392 202.999 208.19 198.266C210.987 193.533 212.319 188.079 212.015 182.594C211.712 177.108 209.787 171.837 206.485 167.447C203.182 163.057 198.65 159.745 193.462 157.931C188.273 156.117 182.661 155.881 177.336 157.254C172.01 158.626 167.21 161.546 163.543 165.643C159.875 169.74 157.505 174.831 156.732 180.271C155.958 185.712 156.816 191.258 159.198 196.208C162.391 202.846 168.094 207.942 175.051 210.375C182.009 212.808 189.651 212.379 196.297 209.181Z" fill="#33CFC8"/>
<path d="M215.48 249.06C220.437 246.676 224.575 242.878 227.373 238.145C230.171 233.412 231.502 227.958 231.199 222.473C230.895 216.987 228.971 211.716 225.668 207.326C222.366 202.936 217.834 199.624 212.645 197.81C207.457 195.996 201.845 195.76 196.52 197.133C191.194 198.505 186.394 201.425 182.726 205.522C179.059 209.619 176.689 214.71 175.915 220.15C175.142 225.591 176 231.137 178.381 236.087C181.575 242.725 187.277 247.821 194.235 250.254C201.192 252.687 208.835 252.258 215.48 249.06Z" fill="#33CFC8"/>
<path d="M285.2 301.265C284.893 301.412 284.557 301.493 284.216 301.502C283.875 301.511 283.536 301.448 283.221 301.317C275.374 298.092 251.723 283.378 228.649 258.593C209.208 237.756 185.341 204.081 181.507 162.193C174.611 86.8196 125.793 43.5849 125.312 43.1445C125.055 42.9414 124.842 42.6883 124.686 42.4004C124.529 42.1126 124.433 41.796 124.403 41.4699C124.373 41.1438 124.409 40.8149 124.51 40.503C124.61 40.1912 124.773 39.9029 124.988 39.6557C125.204 39.4084 125.467 39.2073 125.762 39.0645C126.057 38.9217 126.378 38.8402 126.706 38.8249C127.033 38.8096 127.36 38.8609 127.667 38.9755C127.974 39.0902 128.254 39.2659 128.491 39.4921C128.999 39.9329 179.252 84.3587 186.338 161.75C190.042 202.276 213.323 234.984 232.202 255.298C254.712 279.495 277.59 293.721 285.075 296.837C285.509 297.015 285.883 297.314 286.15 297.7C286.417 298.085 286.566 298.54 286.579 299.009C286.593 299.478 286.469 299.94 286.225 300.341C285.98 300.741 285.624 301.062 285.2 301.265Z" fill="#005955"/>
<path d="M216.423 324.194C216.163 324.317 215.877 324.378 215.59 324.372C215.302 324.365 215.019 324.292 214.765 324.158C199.093 315.656 175.057 296.452 149.125 253.452C122.276 208.825 82.4644 198.043 82.065 197.94C81.8338 197.88 81.6168 197.775 81.4264 197.631C81.2359 197.487 81.0757 197.307 80.9549 197.102C80.834 196.896 80.755 196.668 80.7222 196.432C80.6894 196.196 80.7035 195.955 80.7637 195.724C80.8239 195.493 80.9291 195.276 81.0732 195.086C81.2172 194.895 81.3974 194.735 81.6034 194.614C81.8094 194.493 82.0372 194.414 82.2738 194.381C82.5104 194.348 82.7511 194.362 82.9822 194.422C83.3978 194.531 124.581 205.62 152.245 251.575C177.716 293.896 201.238 312.649 216.55 320.935C216.845 321.094 217.091 321.332 217.259 321.622C217.427 321.912 217.511 322.243 217.502 322.578C217.494 322.914 217.392 323.24 217.21 323.521C217.027 323.803 216.77 324.028 216.467 324.173L216.423 324.194Z" fill="#005955"/>
</g>
<defs>
<clipPath id="clip0_686_8475">
<rect width="165.003" height="330.661" fill="white" transform="translate(0 71.5312) rotate(-25.6909)"/>
</clipPath>
</defs>
</svg>
